<?xml version="1.0" standalone="no"?>
<!DOCTYPE svg PUBLIC "-//W3C//DTD SVG 20010904//EN"
 "http://www.w3.org/TR/2001/REC-SVG-20010904/DTD/svg10.dtd">
<svg version="1.0" xmlns="http://www.w3.org/2000/svg"
 width="1499.000000pt" height="1499.000000pt" viewBox="0 0 1499.000000 1499.000000"
 preserveAspectRatio="xMidYMid meet">
<metadata>
Created by potrace 1.14, written by Peter Selinger 2001-2017
</metadata>
<g transform="translate(0.000000,1499.000000) scale(0.100000,-0.100000)"
fill="#000000" stroke="none">
<path d="M5 11404 c2 -691 5 -1257 7 -1259 2 -2 270 -6 596 -8 326 -2 594 -6
596 -8 3 -3 102 -395 111 -440 2 -9 8 -33 14 -55 15 -52 307 -1227 330 -1329
11 -44 35 -143 55 -220 57 -224 406 -1626 416 -1670 4 -22 22 -94 39 -160 18
-66 36 -138 41 -160 5 -22 14 -60 20 -85 7 -25 13 -52 15 -60 2 -8 8 -35 15
-60 7 -25 13 -52 15 -60 2 -8 20 -80 40 -160 20 -80 38 -152 40 -160 2 -8 13
-53 25 -100 21 -79 33 -129 46 -190 3 -14 9 -38 14 -55 5 -16 24 -88 41 -160
17 -71 35 -143 40 -160 7 -24 92 -369 104 -425 2 -8 58 -233 125 -500 67 -267
123 -492 125 -500 2 -8 13 -53 25 -100 11 -47 23 -94 25 -105 3 -11 25 -101
50 -200 26 -99 48 -188 50 -198 2 -11 30 -122 61 -248 l57 -229 296 0 c163 -1
916 -3 1674 -5 l1378 -4 9 22 c5 12 30 101 55 197 25 96 50 191 55 210 6 19
35 130 65 245 30 116 59 226 65 245 15 54 118 442 125 470 2 12 63 240 90 340
2 8 22 83 43 165 22 83 56 213 77 290 21 77 43 163 50 190 7 28 47 181 90 340
43 160 97 364 121 455 24 91 65 245 91 342 l48 177 52 -207 c29 -114 55 -216
57 -227 2 -11 38 -153 80 -315 41 -162 93 -365 115 -450 37 -144 88 -347 351
-1385 55 -214 117 -462 140 -550 23 -88 43 -167 45 -175 39 -158 66 -261 74
-288 5 -18 10 -35 10 -37 0 -3 3 -16 7 -30 l6 -25 1658 0 1659 0 15 53 c17 59
116 434 121 457 2 8 15 60 30 115 74 275 126 472 130 485 5 23 50 192 80 305
15 55 28 107 30 115 3 8 29 110 60 225 31 116 58 217 60 225 2 8 21 83 43 165
38 144 62 234 118 443 23 84 33 126 49 192 2 8 22 80 43 160 22 80 68 251 102
380 34 129 75 285 92 345 16 61 31 118 33 127 2 10 29 113 60 230 32 117 59
220 61 228 3 14 166 631 227 860 14 52 35 129 46 170 47 181 88 333 157 595
42 154 77 287 79 295 1 8 10 42 19 75 9 33 18 67 20 75 2 8 9 35 16 60 7 25
14 52 15 60 2 8 36 134 75 280 39 146 73 272 75 281 2 9 29 113 60 230 31 118
58 221 60 229 2 8 23 85 46 170 22 85 42 160 43 167 1 7 5 15 7 18 3 3 260 7
570 9 310 3 576 5 591 5 l27 1 -4 1203 c-2 661 -4 1223 -4 1249 l-1 47 -2277
-4 c-1252 -3 -2278 -7 -2280 -9 -5 -4 -4 -117 2 -696 2 -179 6 -611 10 -960 3
-349 7 -684 8 -745 l2 -110 528 -1 c290 -1 530 -3 532 -6 5 -4 -137 -534 -249
-933 -30 -106 -108 -389 -111 -404 -2 -9 -20 -74 -40 -146 -32 -115 -274 -993
-295 -1070 -45 -165 -65 -240 -99 -360 l-39 -140 -10 40 c-6 22 -39 153 -72
290 -33 138 -67 273 -75 300 -7 28 -57 228 -110 445 -53 217 -119 485 -146
595 -28 110 -52 207 -54 215 -2 8 -29 119 -60 245 -31 127 -58 237 -60 245 -2
8 -17 71 -35 140 -18 69 -33 132 -35 140 -2 8 -40 164 -85 345 -45 182 -120
485 -167 675 -47 190 -87 356 -89 370 -3 14 -9 36 -13 50 -8 23 -27 98 -36
143 -3 10 -7 27 -10 37 -3 10 -8 27 -10 37 -2 10 -8 38 -14 63 -7 25 -14 56
-17 70 -2 14 -7 32 -10 40 -3 8 -8 24 -10 35 -3 18 -64 263 -211 858 l-47 187
-55 0 c-494 2 -2294 0 -2296 -2 -3 -3 -49 -172 -110 -403 -13 -49 -30 -115
-38 -145 -9 -30 -49 -183 -91 -340 -42 -157 -83 -307 -91 -335 -15 -48 -112
-409 -176 -655 -17 -63 -49 -180 -71 -260 -22 -80 -50 -185 -63 -235 -35 -136
-183 -683 -200 -740 -8 -27 -41 -152 -74 -277 -33 -125 -71 -267 -85 -315 -14
-48 -38 -140 -55 -203 -17 -63 -44 -167 -62 -230 -17 -63 -32 -122 -34 -130
-2 -8 -15 -55 -29 -105 -45 -164 -208 -770 -211 -789 -4 -19 -68 -249 -90
-326 -8 -25 -14 -40 -15 -35 -3 20 -10 47 -114 460 -59 231 -109 431 -112 445
-3 14 -10 43 -16 65 -6 22 -13 47 -14 56 -2 9 -18 70 -35 135 -17 66 -32 126
-34 134 -4 20 -110 440 -197 780 -38 151 -72 286 -74 299 -3 14 -14 57 -25 97
-11 40 -22 81 -24 91 -1 10 -28 118 -59 240 -31 122 -56 226 -56 232 0 5 232
7 578 4 l579 -4 0 1251 0 1250 -461 1 c-254 0 -1569 2 -2923 4 l-2462 4 4
-1255z"/>
<path d="M12795 2820 c-89 -19 -163 -86 -186 -168 -53 -190 132 -360 317 -291
167 63 214 267 90 391 -54 55 -148 83 -221 68z"/>
</g>
</svg>
